<svg id="visual" viewBox="0 0 960 540" width="960" height="540" xmlns="http://www.w3.org/2000/svg" xmlns:xlink="http://www.w3.org/1999/xlink" version="1.1"><rect x="0" y="0" width="960" height="540" fill="#ffffff"></rect><path d="M0 108L16 108.7C32 109.3 64 110.7 96 104.7C128 98.7 160 85.3 192 87.5C224 89.7 256 107.3 288 116C320 124.7 352 124.3 384 117C416 109.7 448 95.3 480 91C512 86.7 544 92.3 576 90.7C608 89 640 80 672 84C704 88 736 105 768 108C800 111 832 100 864 92.7C896 85.3 928 81.7 944 79.8L960 78L960 0L944 0C928 0 896 0 864 0C832 0 800 0 768 0C736 0 704 0 672 0C640 0 608 0 576 0C544 0 512 0 480 0C448 0 416 0 384 0C352 0 320 0 288 0C256 0 224 0 192 0C160 0 128 0 96 0C64 0 32 0 16 0L0 0Z" fill="#efd39d"></path><path d="M0 65L16 68.2C32 71.3 64 77.7 96 80.8C128 84 160 84 192 81C224 78 256 72 288 70.7C320 69.3 352 72.7 384 75.3C416 78 448 80 480 78.3C512 76.7 544 71.3 576 69.8C608 68.3 640 70.7 672 76.3C704 82 736 91 768 95.8C800 100.7 832 101.3 864 98C896 94.7 928 87.3 944 83.7L960 80L960 0L944 0C928 0 896 0 864 0C832 0 800 0 768 0C736 0 704 0 672 0C640 0 608 0 576 0C544 0 512 0 480 0C448 0 416 0 384 0C352 0 320 0 288 0C256 0 224 0 192 0C160 0 128 0 96 0C64 0 32 0 16 0L0 0Z" fill="#edc582"></path><path d="M0 50L16 49.5C32 49 64 48 96 49C128 50 160 53 192 59C224 65 256 74 288 79.5C320 85 352 87 384 88C416 89 448 89 480 87.3C512 85.7 544 82.3 576 81.7C608 81 640 83 672 85.7C704 88.3 736 91.7 768 86.3C800 81 832 67 864 63.3C896 59.7 928 66.3 944 69.7L960 73L960 0L944 0C928 0 896 0 864 0C832 0 800 0 768 0C736 0 704 0 672 0C640 0 608 0 576 0C544 0 512 0 480 0C448 0 416 0 384 0C352 0 320 0 288 0C256 0 224 0 192 0C160 0 128 0 96 0C64 0 32 0 16 0L0 0Z" fill="#ecb769"></path><path d="M0 48L16 51.3C32 54.7 64 61.3 96 64C128 66.7 160 65.3 192 60.8C224 56.3 256 48.7 288 44C320 39.3 352 37.7 384 41C416 44.3 448 52.7 480 54C512 55.3 544 49.7 576 46.5C608 43.3 640 42.7 672 43C704 43.3 736 44.7 768 49.2C800 53.7 832 61.3 864 62.5C896 63.7 928 58.3 944 55.7L960 53L960 0L944 0C928 0 896 0 864 0C832 0 800 0 768 0C736 0 704 0 672 0C640 0 608 0 576 0C544 0 512 0 480 0C448 0 416 0 384 0C352 0 320 0 288 0C256 0 224 0 192 0C160 0 128 0 96 0C64 0 32 0 16 0L0 0Z" fill="#eca750"></path><path d="M0 40L16 39.7C32 39.3 64 38.7 96 38.8C128 39 160 40 192 41.2C224 42.3 256 43.7 288 42C320 40.3 352 35.7 384 34.8C416 34 448 37 480 36.7C512 36.3 544 32.7 576 33.3C608 34 640 39 672 42.7C704 46.3 736 48.7 768 49.8C800 51 832 51 864 49.3C896 47.7 928 44.3 944 42.7L960 41L960 0L944 0C928 0 896 0 864 0C832 0 800 0 768 0C736 0 704 0 672 0C640 0 608 0 576 0C544 0 512 0 480 0C448 0 416 0 384 0C352 0 320 0 288 0C256 0 224 0 192 0C160 0 128 0 96 0C64 0 32 0 16 0L0 0Z" fill="#ec9738"></path><path d="M0 36L16 34.3C32 32.7 64 29.3 96 26C128 22.7 160 19.3 192 20C224 20.7 256 25.3 288 24.8C320 24.3 352 18.7 384 17C416 15.3 448 17.7 480 19.8C512 22 544 24 576 23.7C608 23.3 640 20.7 672 19.7C704 18.7 736 19.3 768 19.8C800 20.3 832 20.7 864 20.3C896 20 928 19 944 18.5L960 18L960 0L944 0C928 0 896 0 864 0C832 0 800 0 768 0C736 0 704 0 672 0C640 0 608 0 576 0C544 0 512 0 480 0C448 0 416 0 384 0C352 0 320 0 288 0C256 0 224 0 192 0C160 0 128 0 96 0C64 0 32 0 16 0L0 0Z" fill="#ec851e"></path></svg>